<?xml version="1.0" encoding="UTF-8" standalone="no"?>
<!DOCTYPE svg PUBLIC "-//W3C//DTD SVG 1.1//EN" "http://www.w3.org/Graphics/SVG/1.1/DTD/svg11.dtd">
<svg width="100%" height="100%" viewBox="0 0 800 300" version="1.1" xmlns="http://www.w3.org/2000/svg" xmlns:xlink="http://www.w3.org/1999/xlink" xml:space="preserve" xmlns:serif="http://www.serif.com/" style="fill-rule:evenodd;clip-rule:evenodd;stroke-linejoin:round;stroke-miterlimit:2;">
    <g transform="matrix(0.200535,0,0,0.200535,400,150)">
        <g id="gzs-logo.svg" transform="matrix(1,0,0,1,-1835.5,-748)">
            <g>
                <path d="M687.5,21.383C311.751,39.329 12.5,358.622 12.5,749.878C12.5,1141.13 311.751,1460.43 687.5,1478.37L687.5,1479.17L1370.83,1479.17L1370.83,1116.67L1370.83,1116.67L1370.83,520.833L1008.33,520.833L1008.33,1116.67L720.833,1116.67L720.833,1114.52C525.232,1114.52 366.667,951.266 366.667,749.878C366.667,548.491 525.232,385.234 720.833,385.234L720.833,383.09L1370.83,383.09L1370.83,20.59L687.5,20.59L687.5,21.383Z" style="fill:white;"/>
            </g>
            <g>
                <path d="M2708.33,379.606L2708.33,20.59L1483.33,20.59L1483.33,383.09L2212.71,383.09L1485.9,1116.67L1483.33,1116.67L1483.33,1479.17L2708.33,1479.17L2708.33,1116.67L1985.04,1116.67L2711.85,383.09L2708.33,379.606Z" style="fill:white;"/>
            </g>
            <g>
                <path d="M3083.33,1479.04C3400.91,1472.4 3656.32,1212.87 3656.32,893.679C3656.32,740.866 3596.58,594.212 3490.04,484.944L3491.34,483.458L3219.22,245.166L3215.13,249.836C3186.24,209.367 3170.44,160.649 3170.44,110.342C3170.44,105.489 3170.59,100.639 3170.88,95.798L3174.35,95.798L3174.35,14.514L2833.47,14.514L2833.47,29.247L2830.7,28.858C2826.91,55.854 2825,83.081 2825,110.342C2825,262.086 2883.92,407.903 2989.33,517.059L2992.13,514.349L3259.37,748.363L3260.72,746.82C3293.07,788.646 3310.88,840.244 3310.88,893.679C3310.88,994.795 3248.36,1081.31 3159.88,1116.67L2825,1116.67L2825,1479.17L3083.33,1479.17L3083.33,1479.04Z" style="fill:white;"/>
            </g>
        </g>
        <g id="gzs-logo.svg1" serif:id="gzs-logo.svg">
        </g>
    </g>
</svg>
